<?xml version="1.0" encoding="UTF-8" standalone="no"?>
<svg
   xmlns:dc="http://purl.org/dc/elements/1.1/"
   xmlns:cc="http://creativecommons.org/ns#"
   xmlns:rdf="http://www.w3.org/1999/02/22-rdf-syntax-ns#"
   xmlns:svg="http://www.w3.org/2000/svg"
   xmlns="http://www.w3.org/2000/svg"
   xmlns:sodipodi="http://sodipodi.sourceforge.net/DTD/sodipodi-0.dtd"
   xmlns:inkscape="http://www.inkscape.org/namespaces/inkscape"
   viewBox="0 0 16 16"
   version="1.1"
   id="svg8"
   sodipodi:docname="nav_horizontal.svg"
   inkscape:version="0.92.4 5da689c313, 2019-01-14">
  <metadata
     id="metadata12">
    <rdf:RDF>
      <cc:Work
         rdf:about="">
        <dc:format>image/svg+xml</dc:format>
        <dc:type
           rdf:resource="http://purl.org/dc/dcmitype/StillImage" />
      </cc:Work>
    </rdf:RDF>
  </metadata>
  <sodipodi:namedview
     pagecolor="#ffffff"
     bordercolor="#666666"
     borderopacity="1"
     objecttolerance="10"
     gridtolerance="10"
     guidetolerance="10"
     inkscape:pageopacity="0"
     inkscape:pageshadow="2"
     inkscape:window-width="2560"
     inkscape:window-height="1406"
     id="namedview10"
     showgrid="false"
     inkscape:zoom="41.7193"
     inkscape:cx="8.7365899"
     inkscape:cy="7.6295779"
     inkscape:window-x="0"
     inkscape:window-y="34"
     inkscape:window-maximized="1"
     inkscape:current-layer="svg8" />
  <defs
     id="defs3051">
    <style
       type="text/css"
       id="current-color-scheme">
      .ColorScheme-Text {
        color:#232629;
      }
      .ColorScheme-Highlight {
        color:#3daee9;
      }
      </style>
  </defs>
  <path
     style="color:#232629;fill:currentColor;fill-opacity:1;stroke:none;stroke-width:1.00000036"
     d="m 12.083329,2.7500016 a 2.9166595,2.9166817 0 0 1 2.916672,2.916667 2.9166595,2.9166817 0 0 1 -2.916672,2.9166663 H 3.9166658 a 1.7499955,1.7500081 0 0 0 -1.7500003,1.7500041 1.7499955,1.7500081 0 0 0 1.7500003,1.749998 h 8.7500032 v 1.166661 H 3.9166658 A 2.9166595,2.9166817 0 0 1 0.99999889,10.333339 2.9166595,2.9166817 0 0 1 3.9166658,7.4166684 h 8.1666632 a 1.7499955,1.7500081 0 0 0 1.75,-1.7499998 1.7499955,1.7500081 0 0 0 -1.75,-1.7500003 H 3.3333317 V 2.7500016 Z"
     class="ColorScheme-Text"
     id="path4"
     inkscape:connector-curvature="0" />
  <path
     style="color:#3daee9;fill:currentColor;fill-opacity:1;stroke:none;stroke-width:1.00000036"
     d="M 2.7499989,1.5833325 A 1.7500003,1.7500003 0 0 1 4.4999991,3.3333327 1.7500003,1.7500003 0 0 1 2.7499989,5.0833322 1.7500003,1.7500003 0 0 1 0.99999889,3.3333327 1.7500003,1.7500003 0 0 1 2.7499989,1.5833325 Z m 0,1.1666662 A 0.58333364,0.5833345 0 0 0 2.1666655,3.3333327 0.58333364,0.5833345 0 0 0 2.7499989,3.9166656 0.58333364,0.5833345 0 0 0 3.3333317,3.3333327 0.58333364,0.5833345 0 0 0 2.7499989,2.7499987 Z M 13.250001,10.916667 a 1.7500003,1.7500003 0 0 1 1.75,1.75 1.7500003,1.7500003 0 0 1 -1.75,1.75 1.7500003,1.7500003 0 0 1 -1.750001,-1.75 1.7500003,1.7500003 0 0 1 1.750001,-1.75 z m 0,1.166667 a 0.58333364,0.5833345 0 0 0 -0.583332,0.583333 0.58333364,0.5833345 0 0 0 0.583332,0.583328 0.58333364,0.5833345 0 0 0 0.583328,-0.583328 0.58333364,0.5833345 0 0 0 -0.583328,-0.583333 z"
     class="ColorScheme-Highlight"
     id="path6"
     inkscape:connector-curvature="0" />
</svg>
