<?xml version="1.0" encoding="UTF-8"?>
<svg xmlns="http://www.w3.org/2000/svg" xmlns:xlink="http://www.w3.org/1999/xlink" width="64" height="64" viewBox="0 0 64 64">
<path fill="none" stroke-width="1.8" stroke-linecap="square" stroke-linejoin="bevel" stroke="rgb(23.921569%, 68.235294%, 91.372549%)" stroke-opacity="1" stroke-miterlimit="4" d="M 1.701294 17.505737 C 1.701294 17.505737 0.324951 9.667969 5.336182 8.995239 C 10.347412 8.323853 6.315063 17.442627 12.365601 16.447632 C 18.41748 15.452637 19.881104 4.247192 19.881104 4.247192 " transform="matrix(2.909091, 0, 0, 2.909091, 0, 0)"/>
<path fill-rule="nonzero" fill="rgb(0%, 0%, 0%)" fill-opacity="1" d="M 11.3125 25.070312 L 20.039062 25.070312 L 20.039062 27.980469 L 11.3125 27.980469 Z M 11.3125 25.070312 "/>
<path fill-rule="nonzero" fill="rgb(0%, 0%, 0%)" fill-opacity="1" d="M 14.222656 30.890625 L 14.222656 22.164062 L 17.128906 22.164062 L 17.128906 30.890625 Z M 14.222656 30.890625 "/>
<path fill-rule="nonzero" fill="rgb(0%, 0%, 0%)" fill-opacity="1" d="M 30.597656 46.394531 L 39.328125 46.394531 L 39.328125 49.300781 L 30.597656 49.300781 Z M 30.597656 46.394531 "/>
<path fill-rule="nonzero" fill="rgb(0%, 0%, 0%)" fill-opacity="1" d="M 33.507812 52.210938 L 33.507812 43.484375 L 36.417969 43.484375 L 36.417969 52.210938 Z M 33.507812 52.210938 "/>
<path fill-rule="nonzero" fill="rgb(83.137255%, 0%, 0%)" fill-opacity="1" d="M 5.382812 50.910156 C 8.195312 50.910156 10.472656 53.1875 10.472656 56 C 10.472656 58.8125 8.195312 61.089844 5.382812 61.089844 C 2.570312 61.089844 0.289062 58.8125 0.289062 56 C 0.289062 53.1875 2.570312 50.910156 5.382812 50.910156 Z M 5.382812 54.304688 C 4.445312 54.304688 3.683594 55.0625 3.683594 56 C 3.683594 56.9375 4.445312 57.695312 5.382812 57.695312 C 6.320312 57.695312 7.078125 56.9375 7.078125 56 C 7.078125 55.0625 6.320312 54.304688 5.382812 54.304688 Z M 5.382812 54.304688 "/>
<path fill-rule="nonzero" fill="rgb(83.137255%, 0%, 0%)" fill-opacity="1" d="M 58.617188 2.617188 C 61.429688 2.617188 63.710938 4.898438 63.710938 7.710938 C 63.710938 10.519531 61.429688 12.800781 58.617188 12.800781 C 55.804688 12.800781 53.527344 10.519531 53.527344 7.710938 C 53.527344 4.898438 55.804688 2.617188 58.617188 2.617188 Z M 58.617188 6.011719 C 57.679688 6.011719 56.921875 6.773438 56.921875 7.710938 C 56.921875 8.644531 57.679688 9.40625 58.617188 9.40625 C 59.554688 9.40625 60.316406 8.644531 60.316406 7.710938 C 60.316406 6.773438 59.554688 6.011719 58.617188 6.011719 Z M 58.617188 6.011719 "/>
</svg>
