<?xml version="1.0" encoding="UTF-8" standalone="no"?>
<svg
   width="64"
   height="64"
   viewBox="0 0 64 64"
   version="1.1"
   id="svg1"
   sodipodi:docname="clear.svg"
   inkscape:version="1.3.2 (091e20ef0f, 2023-11-25, custom)"
   xmlns:inkscape="http://www.inkscape.org/namespaces/inkscape"
   xmlns:sodipodi="http://sodipodi.sourceforge.net/DTD/sodipodi-0.dtd"
   xmlns="http://www.w3.org/2000/svg"
   xmlns:svg="http://www.w3.org/2000/svg">
  <defs
     id="defs1" />
  <sodipodi:namedview
     id="namedview1"
     pagecolor="#ffffff"
     bordercolor="#000000"
     borderopacity="0.25"
     inkscape:showpageshadow="2"
     inkscape:pageopacity="0.0"
     inkscape:pagecheckerboard="0"
     inkscape:deskcolor="#d1d1d1"
     inkscape:zoom="14.78125"
     inkscape:cx="31.966173"
     inkscape:cy="32"
     inkscape:window-width="2133"
     inkscape:window-height="1144"
     inkscape:window-x="0"
     inkscape:window-y="0"
     inkscape:window-maximized="1"
     inkscape:current-layer="svg1" />
  <path
     fill-rule="nonzero"
     fill="#232629"
     fill-opacity="1"
     d="M 53.49593,5.2796079 42.884925,24.188047 35.034971,19.522823 31.712189,25.10681 50.07794,36.027244 53.395961,30.433736 45.679299,25.844678 56.328388,6.8648317 Z M 19.163687,15.823967 c -1.794682,0 -3.246614,1.451932 -3.246614,3.246615 0,1.794684 1.451932,3.251376 3.246614,3.251376 1.794685,0 3.251377,-1.456692 3.251377,-3.251376 0,-1.794683 -1.456692,-3.246615 -3.251377,-3.246615 z M 7.7910137,19.070582 c -0.8997215,0 -1.6233074,0.728346 -1.6233074,1.628069 0,0.89496 0.7235859,1.623307 1.6233074,1.623307 0.8997215,0 1.6233073,-0.728347 1.6233073,-1.623307 0,-0.899723 -0.7235858,-1.628069 -1.6233073,-1.628069 z m 4.8746833,6.502752 c -1.794683,0 -3.251376,1.451931 -3.251376,3.246614 0,1.794685 1.456693,3.251376 3.251376,3.251376 1.794683,0 3.251376,-1.456691 3.251376,-3.251376 0,-1.794683 -1.456693,-3.246614 -3.251376,-3.246614 z m 16.247358,3.246614 C 25.280844,33.904091 18.630519,37.95522 6.1677063,38.569315 v 3.251376 C 13.037011,52.779208 22.415064,58.068048 35.415806,58.068048 h 3.246615 c 4.260588,-5.155549 7.664297,-9.854095 9.749366,-16.247357 V 38.569315 L 32.16443,28.819948 Z m 1.723276,3.579846 14.062319,8.445009 c -1.86133,5.027017 -4.784235,9.435176 -8.397404,13.8719 C 25.66644,54.821434 16.088449,50.075283 10.475898,41.268481 20.610859,40.259269 26.789902,37.093582 30.636331,32.399794 Z m 0,0"
     id="path1"
     style="stroke-width:1.21867" />
</svg>
