<?xml version="1.0" encoding="UTF-8"?>
<svg xmlns="http://www.w3.org/2000/svg" xmlns:xlink="http://www.w3.org/1999/xlink" width="64" height="64" viewBox="0 0 64 64">
<path fill-rule="nonzero" fill="rgb(13.72549%, 14.901961%, 16.078431%)" fill-opacity="1" d="M 27.332031 4 L 27.332031 9.140625 C 24.414062 9.742188 21.632812 10.902344 19.148438 12.550781 L 15.503906 8.902344 L 8.902344 15.503906 L 12.550781 19.148438 C 10.90625 21.636719 9.757812 24.414062 9.160156 27.332031 L 4 27.332031 L 4 36.667969 L 9.140625 36.667969 C 9.742188 39.585938 10.902344 42.367188 12.550781 44.851562 L 8.902344 48.496094 L 15.503906 55.097656 L 19.148438 51.449219 C 21.636719 53.09375 24.414062 54.242188 27.332031 54.839844 L 27.332031 60 L 36.667969 60 L 36.667969 50.054688 C 35.144531 50.457031 33.574219 50.660156 32 50.667969 C 26.957031 50.667969 22.125 48.625 18.609375 45.007812 C 15.226562 41.523438 13.332031 36.855469 13.332031 32 C 13.332031 26.957031 15.375 22.125 18.992188 18.609375 C 22.476562 15.226562 27.144531 13.332031 32 13.332031 C 37.042969 13.332031 41.875 15.375 45.390625 18.992188 C 48.773438 22.476562 50.667969 27.144531 50.667969 32 L 60 32 L 60 27.332031 L 54.859375 27.332031 C 54.257812 24.414062 53.097656 21.632812 51.449219 19.148438 L 55.097656 15.503906 L 48.496094 8.902344 L 44.851562 12.550781 C 42.363281 10.90625 39.585938 9.757812 36.667969 9.160156 L 36.667969 4 Z M 27.332031 22.667969 L 27.332031 41.332031 L 41.332031 32 Z M 27.332031 22.667969 "/>
<path fill-rule="nonzero" fill="rgb(13.72549%, 14.901961%, 16.078431%)" fill-opacity="1" d="M 46.921875 58.832031 C 43.414062 58.832031 40.558594 55.953125 40.558594 52.449219 C 40.558594 48.949219 43.417969 46.089844 46.921875 46.089844 L 53.429688 46.089844 C 54.597656 46.089844 55.507812 45.171875 55.507812 44 C 55.507812 42.832031 54.597656 41.921875 53.429688 41.921875 L 45.871094 41.921875 C 45.273438 41.925781 44.777344 41.429688 44.777344 40.828125 L 44.777344 38.714844 C 44.777344 38.117188 45.277344 37.628906 45.871094 37.628906 L 53.429688 37.628906 C 56.933594 37.628906 59.800781 40.496094 59.800781 44 C 59.800781 47.503906 56.929688 50.371094 53.429688 50.371094 L 46.921875 50.371094 C 45.75 50.371094 44.851562 51.277344 44.851562 52.449219 C 44.851562 53.625 45.753906 54.539062 46.921875 54.539062 L 54.476562 54.539062 C 55.070312 54.535156 55.574219 55.023438 55.570312 55.621094 L 55.570312 57.738281 C 55.574219 58.335938 55.074219 58.832031 54.476562 58.832031 Z M 46.921875 58.832031 "/>
<path fill-rule="nonzero" fill="rgb(23.921569%, 68.235294%, 91.372549%)" fill-opacity="1" d="M 57.140625 59.855469 C 55.390625 59.855469 53.972656 58.4375 53.972656 56.6875 C 53.972656 54.9375 55.390625 53.515625 57.140625 53.515625 C 58.890625 53.515625 60.308594 54.9375 60.308594 56.6875 C 60.308594 58.4375 58.890625 59.855469 57.140625 59.855469 Z M 43.195312 42.953125 C 41.441406 42.953125 40.023438 41.53125 40.023438 39.78125 C 40.023438 38.03125 41.441406 36.613281 43.195312 36.613281 C 44.945312 36.613281 46.363281 38.03125 46.363281 39.78125 C 46.363281 41.53125 44.945312 42.953125 43.195312 42.953125 Z M 43.195312 42.953125 "/>
</svg>
