<?xml version="1.0" encoding="UTF-8" standalone="no"?>
<svg
   xmlns:dc="http://purl.org/dc/elements/1.1/"
   xmlns:cc="http://creativecommons.org/ns#"
   xmlns:rdf="http://www.w3.org/1999/02/22-rdf-syntax-ns#"
   xmlns:svg="http://www.w3.org/2000/svg"
   xmlns="http://www.w3.org/2000/svg"
   xmlns:sodipodi="http://sodipodi.sourceforge.net/DTD/sodipodi-0.dtd"
   xmlns:inkscape="http://www.inkscape.org/namespaces/inkscape"
   viewBox="0 0 16 16"
   version="1.1"
   id="svg6"
   sodipodi:docname="run.svg"
   inkscape:version="0.92.4 5da689c313, 2019-01-14">
  <metadata
     id="metadata10">
    <rdf:RDF>
      <cc:Work
         rdf:about="">
        <dc:format>image/svg+xml</dc:format>
        <dc:type
           rdf:resource="http://purl.org/dc/dcmitype/StillImage" />
      </cc:Work>
    </rdf:RDF>
  </metadata>
  <sodipodi:namedview
     pagecolor="#ffffff"
     bordercolor="#666666"
     borderopacity="1"
     objecttolerance="10"
     gridtolerance="10"
     guidetolerance="10"
     inkscape:pageopacity="0"
     inkscape:pageshadow="2"
     inkscape:window-width="1600"
     inkscape:window-height="1150"
     id="namedview8"
     showgrid="false"
     inkscape:zoom="29.5"
     inkscape:cx="1.1403535"
     inkscape:cy="14.815058"
     inkscape:window-x="0"
     inkscape:window-y="0"
     inkscape:window-maximized="1"
     inkscape:current-layer="g832" />
  <defs
     id="defs3051">
    <style
       type="text/css"
       id="current-color-scheme">
      .ColorScheme-Text {
        color:#232629;
      }
      </style>
    <style
       id="current-color-scheme-6"
       type="text/css">
      .ColorScheme-Text {
        color:#232629;
      }
      .ColorScheme-Highlight {
        color:#3daee9;
      }
      </style>
  </defs>
  <path
     style="color:#232629;fill:currentColor;fill-opacity:1;stroke:none;stroke-width:1"
     d="M 6.8333331,1.0000005 V 2.2851566 C 6.1030597,2.4358356 5.408447,2.7251286 4.7871093,3.1373701 L 3.8756511,2.2259118 2.2259116,3.8756513 3.1373699,4.7871096 C 2.7267345,5.4087922 2.4389969,6.1033847 2.2897137,6.8333334 H 1.0000002 V 9.1666666 H 2.2851563 C 2.4358354,9.8969399 2.7251284,10.591553 3.1373698,11.21289 l -0.9114583,0.911459 1.6497395,1.64974 0.9114583,-0.911458 c 0.6216826,0.410635 1.3162751,0.698372 2.0462238,0.847655 V 15 H 9.1666664 V 13.714844 12.513998 C 8.7857762,12.613905 8.3937723,12.665203 7.9999997,12.666666 6.7388561,12.666663 5.5314054,12.156231 4.6526692,11.251628 3.8066104,10.38067 3.3333365,9.2142417 3.3333334,8 3.3333364,6.7388564 3.8437699,5.5314058 4.7483723,4.6526695 5.6193299,3.8066104 6.7857579,3.3333366 7.9999997,3.3333336 9.2611435,3.3333365 10.468594,3.84377 11.347331,4.7483726 12.193389,5.6193303 12.666664,6.7857582 12.666666,8 H 15 V 6.8333334 H 13.714844 C 13.564164,6.10306 13.274872,5.4084473 12.86263,4.7871096 L 13.774088,3.8756513 12.124349,2.2259118 11.21289,3.1373701 C 10.591207,2.7267348 9.896615,2.4389971 9.1666664,2.2897139 V 1.0000005 Z m 0,4.6666663 V 10.333333 L 10.333333,8 Z"
     class="ColorScheme-Text"
     id="path4"
     inkscape:connector-curvature="0"
     sodipodi:nodetypes="cccccccccccccccccccccccccccccccccccccccc" />
  <g
     id="g832"
     transform="matrix(1.1666666,0,0,-1.1666666,2.7203391,35.498043)"
     style="stroke-width:0.85714293">
    <path
       sodipodi:type="inkscape:offset"
       inkscape:radius="0.069538556"
       inkscape:original="M 7.7226562 17.890625 C 7.009671 17.890623 6.429691 18.474814 6.4296875 19.1875 C 6.429691 19.900185 7.009974 20.48047 7.7226562 20.480469 L 9.1171875 20.480469 C 9.4045685 20.480468 9.6328115 20.710662 9.6328125 20.998047 C 9.6328115 21.285434 9.4045685 21.513673 9.1171875 21.513672 L 7.4980469 21.513672 C 7.4079799 21.51334 7.3336523 21.587671 7.3339844 21.677734 L 7.3339844 22.130859 C 7.3336523 22.220929 7.4079788 22.293301 7.4980469 22.292969 L 9.1171875 22.292969 C 9.8301725 22.292971 10.412105 21.711036 10.412109 20.998047 C 10.412105 20.285059 9.8298695 19.703123 9.1171875 19.703125 L 7.7226562 19.703125 C 7.435275 19.703125 7.2089857 19.47539 7.2089844 19.1875 C 7.2089857 18.899609 7.4352749 18.669921 7.7226562 18.669922 L 9.3417969 18.669922 C 9.4318669 18.670255 9.5061914 18.597875 9.5058594 18.507812 L 9.5058594 18.054688 C 9.5061914 17.964617 9.4318649 17.890292 9.3417969 17.890625 L 7.7226562 17.890625 z "
       style="color:#232629;fill:currentColor;fill-opacity:1;stroke:none;stroke-width:0.85714287"
       id="path819"
       d="m 7.7226562,17.820312 c -0.75097,-2e-6 -1.3632775,0.616775 -1.3632812,1.367188 3.7e-6,0.750431 0.6128522,1.363282 1.3632812,1.363281 h 1.3945313 c 0.250247,-1e-6 0.4453116,0.196699 0.4453125,0.447266 -9e-7,0.250569 -0.1947501,0.445313 -0.4453125,0.445312 H 7.4980469 c -0.1284667,-4.73e-4 -0.2348487,0.105913 -0.234375,0.234375 v 0.453125 c -4.737e-4,0.128463 0.106916,0.232892 0.234375,0.232422 h 1.6191406 c 0.7508231,2e-6 1.3652305,-0.614408 1.3652345,-1.365234 -4e-6,-0.750845 -0.6146982,-1.365237 -1.3652345,-1.365235 H 7.7226562 c -0.250644,0 -0.4433582,-0.193861 -0.4433593,-0.445312 1.1e-6,-0.251452 0.1930304,-0.447266 0.4433593,-0.447266 h 1.6191407 c 0.1274646,4.72e-4 0.2348485,-0.103964 0.234375,-0.232422 v -0.453124 c 4.735e-4,-0.128467 -0.1059104,-0.23485 -0.234375,-0.234376 z" />
    <path
       id="path821"
       class="ColorScheme-Highlight"
       d="m 9.9127395,17.600631 c -0.375101,0 -0.67918,0.30408 -0.67918,0.679181 0,0.375101 0.304079,0.679181 0.67918,0.679181 0.3751025,0 0.6791815,-0.30408 0.6791815,-0.679181 0,-0.375101 -0.304079,-0.679181 -0.6791815,-0.679181 z m -2.9886432,3.622298 c -0.3751011,0 -0.6791807,0.304079 -0.6791807,0.67918 0,0.375102 0.3040796,0.679181 0.6791807,0.679181 0.3751012,0 0.6791808,-0.304079 0.6791808,-0.679181 0,-0.375101 -0.3040796,-0.67918 -0.6791808,-0.67918 z"
       style="color:#3daee9;fill:currentColor;fill-opacity:1;stroke:none;stroke-width:0.85714287"
       inkscape:connector-curvature="0"
       sodipodi:nodetypes="ssssssssss" />
  </g>
</svg>
