<?xml version="1.0" encoding="UTF-8"?>
<svg xmlns="http://www.w3.org/2000/svg" xmlns:xlink="http://www.w3.org/1999/xlink" width="64" height="64" viewBox="0 0 64 64">
<path fill-rule="nonzero" fill="rgb(13.72549%, 14.901961%, 16.078431%)" fill-opacity="1" d="M 32 2.210938 C 15.496094 2.210938 2.210938 15.496094 2.210938 32 C 2.210938 48.503906 15.496094 61.789062 32 61.789062 C 48.503906 61.789062 61.789062 48.503906 61.789062 32 C 61.789062 15.496094 48.503906 2.210938 32 2.210938 Z M 32 5.933594 C 46.441406 5.933594 58.066406 17.558594 58.066406 32 C 58.066406 46.441406 46.441406 58.066406 32 58.066406 C 17.558594 58.066406 5.933594 46.441406 5.933594 32 C 5.933594 17.558594 17.558594 5.933594 32 5.933594 Z M 32 13.382812 C 27.886719 13.382812 24.554688 16.714844 24.554688 20.828125 L 24.554688 28.277344 L 17.105469 28.277344 L 17.105469 46.894531 L 46.894531 46.894531 L 46.894531 28.277344 L 39.445312 28.277344 L 39.445312 20.828125 C 39.445312 16.714844 36.113281 13.382812 32 13.382812 Z M 32 17.105469 C 34.054688 17.105469 35.722656 18.773438 35.722656 20.828125 L 35.722656 28.277344 L 28.277344 28.277344 L 28.277344 20.828125 C 28.277344 18.773438 29.945312 17.105469 32 17.105469 Z M 20.828125 32 L 43.171875 32 L 43.171875 43.171875 L 20.828125 43.171875 Z M 20.828125 32 "/>
</svg>
