<?xml version="1.0" encoding="UTF-8"?>
<svg xmlns="http://www.w3.org/2000/svg" xmlns:xlink="http://www.w3.org/1999/xlink" width="64" height="64" viewBox="0 0 64 64">
<path fill-rule="nonzero" fill="rgb(13.72549%, 14.901961%, 16.078431%)" fill-opacity="1" d="M 40 10 C 36.273438 10 33.136719 12.550781 32.25 16 L 8 16 L 8 20 L 32.25 20 C 33.136719 23.449219 36.273438 26 40 26 C 43.726562 26 46.863281 23.449219 47.75 20 L 56 20 L 56 16 L 47.75 16 C 46.863281 12.550781 43.726562 10 40 10 Z M 20 38 C 16.273438 38 13.136719 40.550781 12.25 44 L 8 44 L 8 48 L 12.25 48 C 13.136719 51.449219 16.273438 54 20 54 C 23.726562 54 26.863281 51.449219 27.75 48 L 56 48 L 56 44 L 27.75 44 C 26.863281 40.550781 23.726562 38 20 38 Z M 20 42 C 22.210938 42 24 43.789062 24 46 C 24 48.210938 22.210938 50 20 50 C 17.789062 50 16 48.210938 16 46 C 16 43.789062 17.789062 42 20 42 Z M 20 42 "/>
</svg>
