<?xml version="1.0" encoding="UTF-8"?>
<svg xmlns="http://www.w3.org/2000/svg" xmlns:xlink="http://www.w3.org/1999/xlink" width="64" height="64" viewBox="0 0 64 64">
<path fill-rule="nonzero" fill="rgb(85.490196%, 26.666667%, 32.54902%)" fill-opacity="1" d="M 24 8 L 24 12 L 8 12 L 8 16 L 12 16 L 12 56 L 52 56 L 52 16 L 56 16 L 56 12 L 40 12 L 40 8 Z M 28 12 L 36 12 L 36 16 L 48 16 L 48 52 L 16 52 L 16 16 L 28 16 Z M 24 24 L 24 44 L 28 44 L 28 24 Z M 36 24 L 36 44 L 40 44 L 40 24 Z M 36 24 "/>
</svg>
